<svg width="209" height="42" viewBox="0 0 209 42" fill="none" xmlns="http://www.w3.org/2000/svg">
<g filter="url(#filter0_d)">
<rect x="17.167" y="2.29395" width="2.21898" height="15.5329" rx="1.10949" fill="#394E53"/>
<rect x="23.8247" y="37.7974" width="2.21898" height="15.5329" rx="1.10949" transform="rotate(-180 23.8247 37.7974)" fill="#394E53"/>
<rect x="2.84521" y="23.4751" width="2.21898" height="15.5329" rx="1.10949" transform="rotate(-90 2.84521 23.4751)" fill="#394E53"/>
<rect x="38.3491" y="16.8179" width="2.21898" height="15.5329" rx="1.10949" transform="rotate(90 38.3491 16.8179)" fill="#394E53"/>
<rect x="13.9399" y="3.30273" width="2.21898" height="11.0949" rx="1.10949" fill="#394E53"/>
<rect x="27.0522" y="36.7886" width="2.21898" height="11.0949" rx="1.10949" transform="rotate(-180 27.0522 36.7886)" fill="#394E53"/>
<rect x="3.85352" y="26.7026" width="2.21898" height="11.0949" rx="1.10949" transform="rotate(-90 3.85352 26.7026)" fill="#394E53"/>
<rect x="37.3403" y="13.5903" width="2.21898" height="11.0949" rx="1.10949" transform="rotate(90 37.3403 13.5903)" fill="#394E53"/>
<rect x="10.5107" y="4.31104" width="2.21898" height="7.0604" rx="1.10949" fill="#394E53"/>
<rect x="30.4814" y="35.7803" width="2.21898" height="7.0604" rx="1.10949" transform="rotate(-180 30.4814 35.7803)" fill="#394E53"/>
<rect x="4.86328" y="30.1318" width="2.21898" height="7.0604" rx="1.10949" transform="rotate(-90 4.86328 30.1318)" fill="#394E53"/>
<rect x="36.3315" y="10.1606" width="2.21898" height="7.0604" rx="1.10949" transform="rotate(90 36.3315 10.1606)" fill="#394E53"/>
<g opacity="0.5">
<rect x="30.9165" y="4.96973" width="2.21898" height="15.5329" rx="1.10949" transform="rotate(45 30.9165 4.96973)" fill="#394E53"/>
<rect x="5.31934" y="9.51172" width="2.21898" height="15.5329" rx="1.10949" transform="rotate(-45 5.31934 9.51172)" fill="#394E53"/>
<rect x="35.5703" y="30.5669" width="2.21898" height="15.5329" rx="1.10949" transform="rotate(135 35.5703 30.5669)" fill="#394E53"/>
<rect x="10.2642" y="35.2207" width="2.21898" height="15.5329" rx="1.10949" transform="rotate(-135 10.2642 35.2207)" fill="#394E53"/>
<rect x="27.9209" y="3.40088" width="2.21898" height="11.0949" rx="1.10949" transform="rotate(45 27.9209 3.40088)" fill="#394E53"/>
<rect x="3.75049" y="12.5073" width="2.21898" height="11.0949" rx="1.10949" transform="rotate(-45 3.75049 12.5073)" fill="#394E53"/>
<rect x="37.1392" y="27.5713" width="2.21898" height="11.0949" rx="1.10949" transform="rotate(135 37.1392 27.5713)" fill="#394E53"/>
<rect x="13.2607" y="36.79" width="2.21898" height="11.0949" rx="1.10949" transform="rotate(-135 13.2607 36.79)" fill="#394E53"/>
<rect x="24.7817" y="1.68896" width="2.21898" height="7.0604" rx="1.10949" transform="rotate(45 24.7817 1.68896)" fill="#394E53"/>
<rect x="2.03857" y="15.645" width="2.21898" height="7.0604" rx="1.10949" transform="rotate(-45 2.03857 15.645)" fill="#394E53"/>
<rect x="38.8506" y="24.4331" width="2.21898" height="7.0604" rx="1.10949" transform="rotate(135 38.8506 24.4331)" fill="#394E53"/>
<rect x="16.3979" y="38.502" width="2.21898" height="7.0604" rx="1.10949" transform="rotate(-135 16.3979 38.502)" fill="#394E53"/>
</g>
<path d="M62.4636 35.3954C70.8088 35.3954 77.8449 28.4411 77.8449 20.0959H62.4636V24.3503H72.1997C70.6452 28.2774 66.9635 31.0592 62.4636 31.0592C56.4093 31.0592 51.9094 26.1502 51.9094 20.0959C51.9094 14.0415 56.4093 9.13261 62.4636 9.13261C65.5726 9.13261 68.1907 10.3598 70.0725 12.4052L73.3451 9.13261C70.6452 6.51451 66.9635 4.79639 62.4636 4.79639C54.0366 4.79639 47.0005 11.6689 47.0005 20.0959C47.0005 29.1774 53.3821 35.3954 62.4636 35.3954Z" fill="#394E53"/>
<path d="M88.1224 35.3954C93.0314 35.3954 97.2858 31.3864 97.2858 26.4775C97.2858 21.1595 93.4404 17.5596 88.1224 17.5596C83.2135 17.5596 78.9591 21.5686 78.9591 26.4775C78.9591 31.7955 82.8044 35.3954 88.1224 35.3954ZM88.1224 31.141C85.5043 31.141 83.5408 29.0956 83.5408 26.4775C83.5408 23.7776 85.5043 21.814 88.1224 21.814C90.8223 21.814 92.7041 23.7776 92.7041 26.4775C92.7041 29.0956 90.8223 31.141 88.1224 31.141Z" fill="#394E53"/>
<path d="M107.665 35.3954C112.574 35.3954 116.828 31.3864 116.828 26.4775C116.828 21.1595 112.983 17.5596 107.665 17.5596C102.756 17.5596 98.5012 21.5686 98.5012 26.4775C98.5012 31.7955 102.347 35.3954 107.665 35.3954ZM107.665 31.141C105.046 31.141 103.083 29.0956 103.083 26.4775C103.083 23.7776 105.046 21.814 107.665 21.814C110.364 21.814 112.246 23.7776 112.246 26.4775C112.246 29.0956 110.364 31.141 107.665 31.141Z" fill="#394E53"/>
<path d="M127.207 35.3954C132.116 35.3954 136.37 31.3864 136.37 26.4775V5.20546H131.788V19.0323C130.316 17.9687 128.679 17.5596 126.961 17.5596C122.134 17.5596 118.043 21.5686 118.043 26.4775C118.043 31.7955 121.889 35.3954 127.207 35.3954ZM127.207 31.141C124.589 31.141 122.625 29.0956 122.625 26.4775C122.625 23.7776 124.589 21.814 127.207 21.814C129.907 21.814 131.788 23.7776 131.788 26.4775C131.788 29.0956 129.907 31.141 127.207 31.141Z" fill="#394E53"/>
<path d="M139.846 34.9863H144.673V22.2231H161.118V34.9863H165.945V5.20546H161.118V17.9687H144.673V5.20546H139.846V34.9863Z" fill="#394E53"/>
<path d="M176.852 35.3954C181.516 35.3954 186.097 31.7955 186.097 26.4775V17.9687H181.516V26.4775C181.516 29.0956 179.634 31.141 176.934 31.141C174.316 31.141 172.352 29.0956 172.352 26.4775V17.9687H167.771V26.4775C167.771 31.7955 171.534 35.3954 176.852 35.3954Z" fill="#394E53"/>
<path d="M196.913 35.3954C201.822 35.3954 206.076 31.3864 206.076 26.4775C206.076 21.1595 202.477 17.5596 197.322 17.5596C195.195 17.5596 193.313 18.2959 192.331 19.4414V5.20546H187.75V26.4775C187.75 31.7955 191.595 35.3954 196.913 35.3954ZM196.913 31.141C194.295 31.141 192.331 29.0956 192.331 26.4775C192.331 23.7776 194.295 21.814 196.913 21.814C199.613 21.814 201.495 23.7776 201.495 26.4775C201.495 29.0956 199.613 31.141 196.913 31.141Z" fill="#394E53"/>
</g>
<defs>
<filter id="filter0_d" x="0.0385742" y="0.688965" width="208.038" height="40.813" filterUnits="userSpaceOnUse" color-interpolation-filters="sRGB">
<feFlood flood-opacity="0" result="BackgroundImageFix"/>
<feColorMatrix in="SourceAlpha" type="matrix" values="0 0 0 0 0 0 0 0 0 0 0 0 0 0 0 0 0 0 127 0"/>
<feOffset dy="1"/>
<feGaussianBlur stdDeviation="1"/>
<feColorMatrix type="matrix" values="0 0 0 0 0 0 0 0 0 0 0 0 0 0 0 0 0 0 0.1 0"/>
<feBlend mode="normal" in2="BackgroundImageFix" result="effect1_dropShadow"/>
<feBlend mode="normal" in="SourceGraphic" in2="effect1_dropShadow" result="shape"/>
</filter>
</defs>
</svg>
