<svg width="163" height="30" viewBox="0 0 163 30" fill="none" xmlns="http://www.w3.org/2000/svg">
<path d="M11.2623 1.3935L8.43634 2.43087C7.74652 2.68409 7.32172 3.37878 7.41064 4.10821L7.73368 6.75825C7.77657 7.11007 7.9363 7.43731 8.18727 7.68755L11.5 11.0515C12.4978 12.0463 13.5 11.9605 13.5 10.5515L13.3905 2.87931C13.3905 1.77889 12.2953 1.01429 11.2623 1.3935Z" fill="#4ACA9C"/>
<path d="M1.87324 17.7588L2.91061 20.5848C3.16383 21.2746 3.85852 21.6994 4.58794 21.6105L7.23799 21.2874C7.5898 21.2445 7.91704 21.0848 8.16729 20.8338L11.5312 17.5211C12.5261 16.5234 12.4402 15.5211 11.0312 15.5211L3.35905 15.6307C2.25863 15.6307 1.49403 16.7258 1.87324 17.7588Z" fill="#4ACA9C"/>
<path d="M17.8578 27.7016L20.6838 26.6642C21.3736 26.411 21.7984 25.7163 21.7095 24.9869L21.3864 22.3368C21.3435 21.985 21.1838 21.6578 20.9328 21.4075L17.6201 18.0436C16.6224 17.0488 15.6201 17.1346 15.6201 18.5436L15.7297 26.2158C15.7297 27.3162 16.8248 28.0808 17.8578 27.7016Z" fill="#4ACA9C"/>
<path d="M27.659 11.8618L26.6216 9.03583C26.3684 8.34601 25.6737 7.9212 24.9443 8.01012L22.2942 8.33317C21.9424 8.37606 21.6152 8.53578 21.3649 8.78676L18.001 12.0995C17.0062 13.0972 17.092 14.0995 18.501 14.0995L26.1732 13.9899C27.2736 13.9899 28.0382 12.8948 27.659 11.8618Z" fill="#4ACA9C"/>
<path d="M21.7621 2.84394L19.0303 1.57923C18.3635 1.27051 17.5719 1.46135 17.119 2.04L15.4736 4.1423C15.2551 4.42139 15.1367 4.76573 15.1372 5.12015L15.101 9.84128C15.103 11.2502 15.8724 11.8982 16.8687 10.9019L22.2163 5.39942C22.9945 4.6213 22.7607 3.30625 21.7621 2.84394Z" fill="#2C9F76"/>
<path d="M2.84919 7.51254L1.58448 10.2443C1.27576 10.9111 1.4666 11.7027 2.04525 12.1556L4.14754 13.8011C4.42664 14.0195 4.77098 14.138 5.1254 14.1375L9.84653 14.1737C11.2555 14.1716 11.9035 13.4022 10.9072 12.4059L5.40466 7.05832C4.62655 6.2802 3.3115 6.51395 2.84919 7.51254Z" fill="#2C9F76"/>
<path d="M7.47055 26.4255L10.2023 27.6902C10.8691 27.9989 11.6607 27.8081 12.1137 27.2294L13.7591 25.1271C13.9775 24.848 14.096 24.5037 14.0955 24.1493L14.1317 19.4281C14.1296 18.0192 13.3602 17.3712 12.3639 18.3675L7.01632 23.87C6.23821 24.6481 6.47195 25.9632 7.47055 26.4255Z" fill="#2C9F76"/>
<path d="M26.2087 21.7476L27.4734 19.0158C27.7821 18.349 27.5913 17.5574 27.0126 17.1045L24.9103 15.459C24.6312 15.2406 24.2869 15.1222 23.9325 15.1227L19.2113 15.0864C17.8024 15.0885 17.1544 15.8579 18.1507 16.8542L23.6532 22.2018C24.4313 22.9799 25.7464 22.7462 26.2087 21.7476Z" fill="#2C9F76"/>
<path d="M106.048 25.6939H110.828V16.3688H120.531V25.6939H125.3V3.11975H120.531V12.4338H110.828V3.11975H106.048V25.6939Z" fill="#4ACA9C"/>
<path d="M138.472 18.4851C138.483 20.7558 136.927 21.9462 135.238 21.9462C133.46 21.9462 132.312 20.7007 132.301 18.7056V8.76328H127.599V19.5433C127.61 23.5004 129.928 25.9143 133.339 25.9143C135.889 25.9143 137.722 24.6026 138.483 22.6186H138.66V25.6939H143.175V8.76328H138.472V18.4851Z" fill="#4ACA9C"/>
<path d="M145.471 25.6939H150.107V22.9823H150.317C150.968 24.3932 152.392 25.9694 155.13 25.9694C158.993 25.9694 162.007 22.9162 162.007 17.2506C162.007 11.4307 158.861 8.54283 155.141 8.54283C152.304 8.54283 150.946 10.2293 150.317 11.6071H150.173V3.11975H145.471V25.6939ZM150.074 17.2286C150.074 14.2084 151.354 12.2795 153.639 12.2795C155.969 12.2795 157.205 14.2966 157.205 17.2286C157.205 20.1826 155.947 22.2328 153.639 22.2328C151.376 22.2328 150.074 20.2487 150.074 17.2286Z" fill="#4ACA9C"/>
<path d="M47.8357 10.3284H52.0085C51.313 5.89734 47.4714 2.81104 42.4707 2.81104C36.5537 2.81104 32.116 7.15391 32.116 14.4288C32.116 21.5714 36.355 26.0024 42.5921 26.0024C48.189 26.0024 52.1962 22.4091 52.1962 16.5892V13.8776H43.0226V17.0742H48.2331C48.1669 20.2927 46.0142 22.3319 42.6142 22.3319C38.8278 22.3319 36.2336 19.4991 36.2336 14.3847C36.2336 9.3033 38.8719 6.48153 42.5259 6.48153C45.2525 6.48153 47.1071 7.9365 47.8357 10.3284Z" fill="#2C9F76"/>
<path d="M61.8217 26.0245C66.7894 26.0245 69.9465 22.5303 69.9465 17.2946C69.9465 12.0479 66.7894 8.54274 61.8217 8.54274C56.8541 8.54274 53.6969 12.0479 53.6969 17.2946C53.6969 22.5303 56.8541 26.0245 61.8217 26.0245ZM61.8438 22.8279C59.0951 22.8279 57.7483 20.3809 57.7483 17.2836C57.7483 14.1863 59.0951 11.7062 61.8438 11.7062C64.5484 11.7062 65.8952 14.1863 65.8952 17.2836C65.8952 20.3809 64.5484 22.8279 61.8438 22.8279Z" fill="#2C9F76"/>
<path d="M79.1802 26.0245C84.1479 26.0245 87.305 22.5303 87.305 17.2946C87.305 12.0479 84.1479 8.54274 79.1802 8.54274C74.2126 8.54274 71.0554 12.0479 71.0554 17.2946C71.0554 22.5303 74.2126 26.0245 79.1802 26.0245ZM79.2023 22.8279C76.4536 22.8279 75.1068 20.3809 75.1068 17.2836C75.1068 14.1863 76.4536 11.7062 79.2023 11.7062C81.9069 11.7062 83.2537 14.1863 83.2537 17.2836C83.2537 20.3809 81.9069 22.8279 79.2023 22.8279Z" fill="#2C9F76"/>
<path d="M95.4348 25.9914C98.3492 25.9914 99.6628 24.2608 100.292 23.0263H100.535V25.6938H104.465V3.11967H100.458V11.5629H100.292C99.6849 10.3394 98.4375 8.54274 95.4459 8.54274C91.527 8.54274 88.447 11.607 88.447 17.2505C88.447 22.8279 91.4387 25.9914 95.4348 25.9914ZM96.5498 22.7177C93.9114 22.7177 92.5205 20.403 92.5205 17.2285C92.5205 14.076 93.8893 11.8164 96.5498 11.8164C99.1219 11.8164 100.535 13.9438 100.535 17.2285C100.535 20.5132 99.0998 22.7177 96.5498 22.7177Z" fill="#2C9F76"/>
</svg>
