<?xml version="1.0" encoding="UTF-8" standalone="no"?> <!DOCTYPE svg PUBLIC "-//W3C//DTD SVG 1.1//EN" "http://www.w3.org/Graphics/SVG/1.1/DTD/svg11.dtd">
<svg style="fill-rule:evenodd;clip-rule:evenodd;stroke-linecap:round;stroke-linejoin:round;" xmlns:vectornator="http://vectornator.io" xmlns:xlink="http://www.w3.org/1999/xlink" xmlns="http://www.w3.org/2000/svg" xml:space="preserve" version="1.1" viewBox="0 0 240 240">
<g id="Layer 1" vectornator:layerName="Layer 1">
<path d="M50.0089+62.8939C50.0089+62.8939+52.1144+59.9088+53.5287+58.634L86.2111+92.9225C86.2111+92.9225+87.079+97.626+79.5172+93.116L50.0089+62.8939ZM44.4239+72.9223C44.4239+72.9223+45.1874+70.2679+46.8267+67.3877L70.1391+91.7204C70.1391+91.7204+72.3329+97.029+64.7791+93.9631L44.4239+72.9223ZM40.864+84.3866C40.864+84.3866+41.4345+81.1677+42.3748+78.5778L55.393+91.9542C55.393+91.9542+57.0002+97.4888+50.684+93.5599C50.684+93.5599+49.5509+93.221+48.7714+92.7128C47.9919+92.1964+40.864+84.3866+40.864+84.3866Z" fill-rule="evenodd" fill="#ededfe" opacity="0.5548"/>
<path d="M85.1984+40.5877C85.1984+40.5877+88.7743+39.9261+90.6708+40.0068L90.3815+87.5346C90.3815+87.5346+87.7457+91.5122+85.4476+82.9763L85.1984+40.5877ZM74.2533+43.8633C74.2533+43.8633+76.6402+42.4998+79.8062+41.5881L79.6856+75.4004C79.6856+75.4004+77.5883+80.7495+74.2937+73.2465L74.2533+43.8633ZM63.7584+49.5753C63.7584+49.5753+66.3942+47.6713+68.8612+46.4692L68.9416+65.2028C68.9416+65.2028+66.2656+70.3017+64.4575+63.0487C64.4575+63.0487+63.8789+62.016+63.678+61.1043C63.4771+60.1846+63.7584+49.5753+63.7584+49.5753Z" fill-rule="evenodd" fill="#ededfe" opacity="0.8982"/>
<path d="M40.639+105.074C40.639+105.074+39.9399+101.476+40.0042+99.5717L87.1913+99.3296C87.1913+99.3296+91.1692+101.935+82.7233+104.356L40.639+105.074ZM44.0061+116.054C44.0061+116.054+42.6239+113.666+41.6837+110.487L75.258+110.229C75.258+110.229+80.5859+112.287+73.1766+115.683L44.0061+116.054ZM49.8081+126.559C49.8081+126.559+47.8875+123.929+46.666+121.452L65.2613+121.161C65.2613+121.161+70.3562+123.799+63.1719+125.704C63.1719+125.704+62.1513+126.292+61.2433+126.51C60.3432+126.728+49.8081+126.559+49.8081+126.559Z" fill-rule="evenodd" fill="#ededfe" opacity="0.7443"/>
<path d="M63.3251+140.878C63.3251+140.878+60.3196+138.813+59.0339+137.417L92.4314+103.839C92.4314+103.839+97.0843+102.879+92.7608+110.575L63.3251+140.878ZM73.3942+146.308C73.3942+146.308+70.7422+145.59+67.8574+143.992L91.5556+120.047C91.5556+120.047+96.7788+117.732+93.8858+125.396L73.3942+146.308ZM84.8454+149.672C84.8454+149.672+81.639+149.164+79.0516+148.269L92.0699+134.9C92.0699+134.9+97.5343+133.173+93.7493+139.612C93.7493+139.612+93.4358+140.757+92.9457+141.548C92.4556+142.339+84.8454+149.672+84.8454+149.672Z" fill-rule="evenodd" fill="#ededfe" opacity="0.3937"/>
<path d="M104.863+149.149C104.863+149.149+101.287+149.843+99.3981+149.778L99.2854+102.251C99.2854+102.251+101.889+98.2489+104.26+106.769L104.863+149.149ZM115.783+145.777C115.783+145.777+113.405+147.164+110.246+148.1L110.086+114.288C110.086+114.288+112.135+108.923+115.494+116.393L115.783+145.777ZM126.222+139.968C126.222+139.968+123.602+141.896+121.143+143.122L120.902+124.397C120.902+124.397+123.53+119.274+125.402+126.511C125.402+126.511+125.989+127.543+126.198+128.455C126.423+129.359+126.222+139.968+126.222+139.968Z" fill-rule="evenodd" fill="#ededfe" opacity="0.8982"/>
<path d="M126.23+49.3569C126.23+49.3569+129.227+51.4384+130.505+52.8422L96.9227+86.243C96.9227+86.243+92.2698+87.1792+96.6334+79.5066L126.23+49.3569ZM116.193+43.8788C116.193+43.8788+118.837+44.6129+121.722+46.2265L97.887+70.0429C97.887+70.0429+92.6475+72.3259+95.5885+64.6777L116.193+43.8788ZM104.758+40.4499C104.758+40.4499+107.956+40.9743+110.543+41.886L97.4529+55.1819C97.4529+55.1819+91.9805+56.8761+95.7976+50.4621C95.7976+50.4621+96.1191+49.3165+96.6092+48.5259C97.1073+47.7433+104.758+40.4499+104.758+40.4499Z" fill-rule="evenodd" fill="#ededfe" opacity="0.3959"/>
<path d="M149.213+84.953C149.213+84.953+149.864+88.5592+149.776+90.4634L102.589+90.044C102.589+90.044+98.6431+87.3815+107.129+85.0822L149.213+84.953ZM145.991+73.9163C145.991+73.9163+147.341+76.3204+148.241+79.5152L114.667+79.2975C114.667+79.2975+109.363+77.1674+116.82+73.8759L145.991+73.9163ZM140.342+63.3392C140.342+63.3392+142.23+65.9935+143.412+68.4865L124.816+68.5188C124.816+68.5188+119.762+65.808+126.97+64.0088C126.97+64.0088+127.998+63.4279+128.906+63.2262C129.815+63.0245+140.342+63.3392+140.342+63.3392Z" fill-rule="evenodd" fill="#ededfe" opacity="0.7398"/>
<path d="M140.077+126.577C140.077+126.577+138.003+129.586+136.597+130.869L103.553+96.935C103.553+96.935+102.637+92.2396+110.247+96.669L140.077+126.577ZM145.557+116.484C145.557+116.484+144.818+119.146+143.211+122.042L119.641+97.9596C119.641+97.9596+117.391+92.6752+124.969+95.6606L145.557+116.484ZM148.997+104.987C148.997+104.987+148.458+108.206+147.55+110.812L134.387+97.5806C134.387+97.5806+132.724+92.0703+139.08+95.9266C139.08+95.9266+140.213+96.2493+141.001+96.7578C141.78+97.2497+148.997+104.987+148.997+104.987Z" fill-rule="evenodd" fill="#ededfe" opacity="0.552"/>
</g>
</svg>
